<svg width="48" height="48" viewBox="0 0 48 48" fill="none" xmlns="http://www.w3.org/2000/svg">
<path d="M32 22H28M32 32H28M16 22L18 24L22 20M16 32L18 34L22 30M32 10C35.3137 10 38 12.6863 38 16V32.4C38 35.7603 38 37.4405 37.346 38.7239C36.7708 39.8529 35.8529 40.7708 34.7239 41.346C33.4405 42 31.7603 42 28.4 42H19.6C16.2397 42 14.5595 42 13.2761 41.346C12.1471 40.7708 11.2292 39.8529 10.654 38.7239C10 37.4405 10 35.7603 10 32.4V16C10 12.6863 12.6863 10 16 10M16 14H32V9.41421C32 8.50871 31.6403 7.64029 31 7C30.3597 6.35971 29.4913 6 28.5858 6H19.4142C18.5087 6 17.6403 6.35971 17 7C16.3597 7.64029 16 8.50871 16 9.41421V14Z" stroke="white" stroke-width="3" stroke-linecap="round" stroke-linejoin="round"/>
</svg>
